<svg width="24" height="24" viewBox="0 0 24 24" fill="none" xmlns="http://www.w3.org/2000/svg">
<g clip-path="url(#clip0_366_309)">
<path d="M1.90607 1.75964H9.01541V6.96276H1.90607V1.75964Z" fill="black"/>
<path d="M1.92783 11.1907H10.9217V8.37817C9.78595 8.37817 3.05883 8.37817 1.92783 8.37817C1.1512 8.37817 0.521576 9.0078 0.521576 9.78442C0.521576 10.561 1.1512 11.1907 1.92783 11.1907Z" fill="black"/>
<path d="M5.46689 14.6737C3.23114 14.6737 1.4122 16.4926 1.4122 18.7284H9.52158C9.52158 16.4926 7.70264 14.6737 5.46689 14.6737Z" fill="black"/>
<path d="M19.2544 13.3127V7.71289H19.6406C20.8037 7.71289 21.7499 6.76667 21.7499 5.60352C21.7499 4.44036 20.8037 3.49414 19.6406 3.49414C18.5346 3.49414 15.8212 3.49414 14.7188 3.49414V4.90039H16.125V6.53661C15.6753 6.77084 15.3416 7.1795 15.1534 7.74205C14.879 8.5625 14.9297 9.4632 14.9297 11.7748C14.9297 13.2343 14.6252 15.6826 12.5859 15.6826H10.9219C10.9219 15.5356 10.9219 14.1657 10.9219 12.5969C9.04448 12.5969 4.23891 12.5969 2.23247 12.5969C2.09095 12.7797 1.95558 12.9642 1.82719 13.1504H0V14.5566H0.998484C0.108375 16.3617 0.00403125 17.8643 0 18.7284H0.006C0.006 15.7172 2.45578 13.2674 5.46694 13.2674C8.47809 13.2674 10.9279 15.7172 10.9279 18.7284H24C23.9999 15.9554 21.9346 13.6587 19.2544 13.3127Z" fill="black"/>
<path d="M21.7785 20.1346H15.3361C16.565 22.9384 20.5465 22.9459 21.7785 20.1346Z" fill="black"/>
<path d="M8.6881 20.1346H2.2457C3.47448 22.9384 7.45609 22.9458 8.6881 20.1346Z" fill="black"/>
</g>
<defs>
<clipPath id="clip0_366_309">
<rect width="24" height="24" fill="white"/>
</clipPath>
</defs>
</svg>
