<svg width="24" height="24" viewBox="0 0 24 24" fill="none" xmlns="http://www.w3.org/2000/svg">
<path d="M15.7807 9.50639C17.3719 8.05566 19.5238 6.09361 19.7199 1.40625H21.1406V0H2.85938V1.40625H4.28011C4.47623 6.09361 6.62808 8.05566 8.2193 9.50639C9.28669 10.4796 9.89062 11.0752 9.89062 12C9.89062 12.9248 9.28669 13.5204 8.2193 14.4936C6.62808 15.9443 4.47623 17.9064 4.28011 22.5938H2.85938V24H21.1406V22.5938H19.7199C19.5238 17.9064 17.3719 15.9443 15.7807 14.4936C14.7133 13.5204 14.1094 12.9248 14.1094 12C14.1094 11.0752 14.7133 10.4796 15.7807 9.50639ZM11.2969 17.2705C11.0797 17.3153 10.8652 17.3805 10.6558 17.4672L6.34903 19.2493C7.05234 17.461 8.18513 16.4278 9.16673 15.5328C10.2622 14.5341 11.2969 13.5907 11.2969 12V17.2705ZM14.8333 15.5328C15.8149 16.4278 16.9476 17.461 17.651 19.2493L13.3442 17.4671C13.1348 17.3805 12.9203 17.3153 12.7031 17.2705V12C12.7031 13.5907 13.7378 14.5341 14.8333 15.5328ZM6.32433 4.6875C5.98434 3.80161 5.74955 2.73197 5.68809 1.40625H18.3119C18.2504 2.73197 18.0157 3.80161 17.6756 4.6875H6.32433Z" fill="black"/>
</svg>
